<?xml version="1.0" standalone="no"?><svg xmlns="http://www.w3.org/2000/svg" viewBox="0 0 1440 320"><path fill="#0099ff" fill-opacity="1" d="M0,288L26.7,250.7C53.3,213,107,139,160,144C213.3,149,267,235,320,229.3C373.3,224,427,128,480,80C533.3,32,587,32,640,53.3C693.3,75,747,117,800,160C853.3,203,907,245,960,261.3C1013.3,277,1067,267,1120,250.7C1173.3,235,1227,213,1280,224C1333.3,235,1387,277,1413,298.7L1440,320L1440,0L1413.3,0C1386.7,0,1333,0,1280,0C1226.7,0,1173,0,1120,0C1066.7,0,1013,0,960,0C906.7,0,853,0,800,0C746.7,0,693,0,640,0C586.7,0,533,0,480,0C426.7,0,373,0,320,0C266.7,0,213,0,160,0C106.7,0,53,0,27,0L0,0Z"></path></svg>